<?xml version="1.0" encoding="UTF-8"?>
<svg xmlns="http://www.w3.org/2000/svg" xmlns:xlink="http://www.w3.org/1999/xlink" width="89pt" height="71pt" viewBox="0 0 89 71" version="1.1">
<g id="surface286">
<path style="fill-rule:evenodd;fill:rgb(18%,54.5%,34.1%);fill-opacity:1;stroke-width:0.4;stroke-linecap:butt;stroke-linejoin:round;stroke:rgb(18%,54.5%,34.1%);stroke-opacity:1;stroke-miterlimit:10;" d="M 184.207031 661.332031 C 195.691406 656 204.308594 672 215.796875 688 C 227.28125 704 241.640625 720 247.382812 714.667969 C 253.128906 709.332031 250.257812 682.667969 244.511719 666.667969 C 238.769531 650.667969 230.152344 645.332031 212.921875 656 C 195.691406 666.667969 169.847656 693.332031 164.101562 693.332031 C 158.359375 693.332031 172.71875 666.667969 184.207031 661.332031 Z M 184.207031 661.332031 " transform="matrix(1,0,0,-1,-162,721)"/>
<path style=" stroke:none;fill-rule:evenodd;fill:rgb(100%,54.9%,0%);fill-opacity:1;" d="M 70.554688 3.027344 C 69.3125 -0.851562 64.089844 0.65625 58.886719 6.394531 C 53.679688 12.136719 50.46875 19.933594 51.707031 23.8125 C 52.949219 27.691406 58.171875 26.183594 63.378906 20.445312 C 68.582031 14.707031 71.796875 6.90625 70.554688 3.027344 Z M 70.554688 3.027344 "/>
</g>
</svg>
